<svg xmlns="http://www.w3.org/2000/svg" viewBox="0 0 54.48 39.91"><defs><style>.cls-1{fill:#fff;}</style></defs><title>資產 1</title><g id="圖層_2" data-name="圖層 2"><g id="圖層_1-2" data-name="圖層 1"><path class="cls-1" d="M7.57,0a.6.6,0,0,0-.43.26C-8.28,21,5.86,38.19,7.23,39.79a.34.34,0,0,0,.26.12H17.71a.35.35,0,0,0,.24-.6c-20-18.77-4-35.37-.38-38.7a.35.35,0,0,0-.24-.6H7.54"/><path class="cls-1" d="M26.06,0h8.88a.35.35,0,0,1,.26.58C33.71,2.21,29.71,7,29.71,11c0,5,4.63,12,4.63,17,0,4.51-3,10.33-3.56,11.49-.19.41-.19.41-.57.41H21a.35.35,0,0,1-.23-.61,14.34,14.34,0,0,0,5-10.67c0-7.32-4.53-6.69-4.53-16C21.25,4,25.17.6,25.84.07A.34.34,0,0,1,26.06,0Z"/><path class="cls-1" d="M38.06,0h9.67a.35.35,0,0,1,.3.16,56.07,56.07,0,0,1,3.61,6.5.35.35,0,0,1-.33.48H42.54a.35.35,0,0,1-.32-.21A19.07,19.07,0,0,0,37.84.62.35.35,0,0,1,38.06,0Z"/><path class="cls-1" d="M43.37,9.24h9a.35.35,0,0,1,.32.21c.76,1.76,5.67,14.48-4.84,30.3a.35.35,0,0,1-.29.16H36.88a.35.35,0,0,1-.21-.63C39.8,36.94,49.57,27.87,43,9.71A.35.35,0,0,1,43.37,9.24Z"/></g></g></svg>