<svg xmlns="http://www.w3.org/2000/svg" viewBox="0 0 63.99 37.68"><defs><style>.cls-1{fill:#fff;}</style></defs><title>資產 2</title><g id="圖層_2" data-name="圖層 2"><g id="圖層_1-2" data-name="圖層 1"><path class="cls-1" d="M51.83,12V23.55h6.79v-2.6H54.34V18.68h3.84V16.31H54.34V14.49h4.15V12ZM16.74,14.92v8.69h2.84V14.91h2.81V12H13.94v2.94ZM39.67,32.6c0,1.58,0,3.17,0,4.75,0,.2,0,.28.26.28h4.7c.18,0,.25-.05.24-.24,0-.58,0-1.15,0-1.73,0-.21-.06-.27-.27-.27H41.8c-.2,0-.26-.06-.25-.26,0-.51,0-1,0-1.53,0-.23.07-.3.3-.3h2.33c.36,0,.36,0,.36-.35s0-.87,0-1.3,0-.34-.33-.34h-2.4c-.19,0-.27-.06-.26-.26,0-.38,0-.77,0-1.15,0-.2.05-.27.26-.27h2.73c.18,0,.23-.06.23-.23,0-.52,0-1,0-1.55,0-.24-.06-.31-.31-.31H40c-.35,0-.35,0-.35.34Q39.67,30.26,39.67,32.6ZM35.83,12V23.55h3.23V12ZM.58,31.8l.31,0H16a.73.73,0,0,0,.29,0L17.85,31h-.31c-1.79,0-3.58,0-5.38,0a11.55,11.55,0,0,0-1.73.18A7.6,7.6,0,0,1,8,31.35a5.3,5.3,0,0,0-.74-.19c-2,0-4,0-6,0a.34.34,0,0,0-.24.09A6.56,6.56,0,0,0,.58,31.8Zm30.11-8.24h3.42L32.85,19.9,27.41,23.5c.35,0,.68,0,1,0a.64.64,0,0,0,.36-.13c.42-.35.82-.71,1.22-1.07l.27-.22ZM14.44,32.63l0,0H.52a.5.5,0,0,0-.17,0,.35.35,0,0,0-.19.13A3.93,3.93,0,0,0,0,33.2l.3,0H12.73a.79.79,0,0,0,.27,0ZM10.62,34v0H.3a1.34,1.34,0,0,0-.28.06,1,1,0,0,0,.12.31.89.89,0,0,0,.32.23,3.19,3.19,0,0,0,.59.2,13.15,13.15,0,0,0,4.2.07c.84-.08,1.67-.2,2.5-.33S9.66,34.21,10.62,34ZM2.93,28.73l.06.07H7.16c.06,0,.13,0,.16,0,.25-.3.49-.62.75-.95l-.14,0H4.08a.37.37,0,0,0-.23.08C3.54,28.15,3.24,28.44,2.93,28.73Zm4,.89-.13,0H2.36a.25.25,0,0,0-.16,0c-.22.23-.42.47-.63.71l0,.06H6.5a.43.43,0,0,0,.17,0c.06,0,.13-.08.14-.14S6.87,29.85,6.89,29.62Zm6.37-6.79-2.67-.53a.37.37,0,0,0-.26,0L8.6,23.66l.07,0H11.8a.51.51,0,0,0,.25-.09Zm7.42,6.68h-4a.56.56,0,0,0-.2,0l-1.91.75h4.68a.42.42,0,0,0,.19,0Zm-9.59-5-.15,0H7.76a.29.29,0,0,0-.17,0l-1.1.9.08,0H10a.36.36,0,0,0,.22-.09Zm7.11,4.23h3.54a.39.39,0,0,0,.19,0l1.41-.88a.38.38,0,0,0-.23-.07l-2.85,0a.44.44,0,0,0-.19,0ZM9.4,26.24H5.67a.26.26,0,0,0-.16,0L4.73,27H8.61a.33.33,0,0,0,.21-.09C9,26.7,9.19,26.49,9.4,26.24Zm16.53-.3c-.61,0-1.15,0-1.69,0a2.21,2.21,0,0,0-1.45.38c-.36.25-.75.44-1.18.68h2.76a.43.43,0,0,0,.24-.06Zm-1.2-.75h2a.23.23,0,0,0,.14,0l1-.91H26.29a.24.24,0,0,0-.12,0Z"/><path class="cls-1" d="M64,37.63c-.66,0-1.32,0-2,0-.21,0-.27-.06-.26-.27,0-1.25,0-2.5,0-3.75,0-.22-.06-.29-.28-.29H58.13c-.21,0-.26.07-.26.28,0,1.23,0,2.47,0,3.7,0,.1,0,.2,0,.31h-2.4c0-.09,0-.18,0-.27q0-4.74,0-9.48c0-.24.08-.29.3-.29.62,0,1.23,0,1.85,0,.22,0,.28.07.28.29,0,1.09,0,2.18,0,3.28,0,.19,0,.26.25.26h3.4c.19,0,.24-.06.24-.25,0-1.09,0-2.18,0-3.28,0-.23.06-.3.29-.3.65,0,1.3,0,2,0Z"/><path class="cls-1" d="M48,0l.64.11c1,.17,1.26.74.87,1.63a6.8,6.8,0,0,1-1.29,1.83,33.23,33.23,0,0,1-3.94,3.54,1,1,0,0,1-.68.24c-1,0-1.92,0-2.9,0L41,7.14a15.79,15.79,0,0,0,2.49-2.42A4.12,4.12,0,0,0,44,3.78a.56.56,0,0,0-.44-.84,4,4,0,0,0-1.66,0,25.9,25.9,0,0,0-6.22,1.89c-2.7,1.1-5.24,2.52-7.84,3.81-1.43.71-2.85,1.45-4.28,2.17a.23.23,0,0,1-.16,0l.26-.19c2.81-1.9,5.72-3.64,8.7-5.26A81.68,81.68,0,0,1,40.1,1.67,19.92,19.92,0,0,1,46.36.07L47,0Z"/><path class="cls-1" d="M50.43,37.68c-.34-.1-.69-.17-1-.31a4.91,4.91,0,0,1-3.27-4.13,5,5,0,0,1,4.17-5.6,5.1,5.1,0,0,1,3.31.55.38.38,0,0,1,.24.39c0,.78,0,1.57,0,2.35,0,.06,0,.11,0,.23a2.62,2.62,0,0,0-2.54-1.25,2.41,2.41,0,0,0-1.71.82,3,3,0,0,0,.23,4.06,2.75,2.75,0,0,0,4-.67c0,.08,0,.13,0,.19,0,.8,0,1.6,0,2.4a.33.33,0,0,1-.22.37l-1.55.53-.18.06Z"/><path class="cls-1" d="M64,23.62H60.72V12H64Z"/><path class="cls-1" d="M33.92,37.68c0-.08,0-.17,0-.25,0-2.37,0-4.74,0-7.1,0-.25-.06-.33-.32-.32-.5,0-1,0-1.54,0,0-.15,0-.28,0-.41,0-.6,0-1.2,0-1.8,0-.16,0-.22.21-.22h5.65c.17,0,.21.06.21.22q0,1,0,2c0,.16-.05.22-.21.21-.42,0-.83,0-1.25,0-.21,0-.28.06-.28.27,0,.59,0,1.18,0,1.78q0,2.81,0,5.63Z"/><path class="cls-1" d="M51.83,12h6.66v2.46H54.34v1.83h3.83v2.36H54.34v2.27h4.28v2.6H51.83Z"/><path class="cls-1" d="M16.74,14.92h-2.8V12h8.45v2.94H19.58v8.69H16.74Z"/><path class="cls-1" d="M39.67,32.6q0-2.34,0-4.68c0-.34,0-.34.35-.34h4.45c.25,0,.31.07.31.31,0,.52,0,1,0,1.55,0,.17-.05.23-.23.23H41.82c-.21,0-.27.07-.26.27,0,.38,0,.77,0,1.15,0,.2.07.26.26.26h2.4c.32,0,.33,0,.33.34s0,.87,0,1.3,0,.35-.36.35H41.85c-.23,0-.3.06-.3.3,0,.51,0,1,0,1.53,0,.19.05.26.25.26h2.8c.21,0,.27.06.27.27,0,.58,0,1.15,0,1.73,0,.19-.06.24-.24.24h-4.7c-.22,0-.26-.08-.26-.28C39.67,35.76,39.67,34.18,39.67,32.6Z"/><path class="cls-1" d="M35.83,12h3.23V23.55H35.83Z"/><path class="cls-1" d="M.58,31.8a6.56,6.56,0,0,1,.36-.55.34.34,0,0,1,.24-.09c2,0,4,0,6,0a5.3,5.3,0,0,1,.74.19,7.6,7.6,0,0,0,2.48-.11,11.55,11.55,0,0,1,1.73-.18c1.79,0,3.58,0,5.38,0h.31l-1.51.73a.73.73,0,0,1-.29,0H.89Z"/><path class="cls-1" d="M30.69,23.56l-.42-1.48-.27.22c-.41.36-.81.72-1.22,1.07a.64.64,0,0,1-.36.13c-.33,0-.66,0-1,0l5.44-3.59,1.26,3.65Z"/><path class="cls-1" d="M14.44,32.63,13,33.19a.79.79,0,0,1-.27,0H.3l-.3,0a3.93,3.93,0,0,1,.16-.48.35.35,0,0,1,.19-.13.5.5,0,0,1,.17,0h13.9Z"/><path class="cls-1" d="M10.62,34c-1,.17-1.91.36-2.87.51s-1.66.25-2.5.33a13.15,13.15,0,0,1-4.2-.07,3.19,3.19,0,0,1-.59-.2.89.89,0,0,1-.32-.23A1,1,0,0,1,0,34.06,1.34,1.34,0,0,1,.3,34H10.61Z"/><path class="cls-1" d="M2.93,28.73c.31-.29.61-.58.93-.87a.37.37,0,0,1,.23-.08H7.93l.14,0c-.26.33-.5.64-.75.95,0,0-.11,0-.16,0H3Z"/><path class="cls-1" d="M6.89,29.62c0,.23,0,.44-.08.64s-.08.11-.14.14a.43.43,0,0,1-.17,0H1.61l0-.06c.21-.24.42-.48.63-.71a.25.25,0,0,1,.16,0h4.4Z"/><path class="cls-1" d="M13.26,22.83,12,23.61a.51.51,0,0,1-.25.09H8.67l-.07,0,1.73-1.32a.37.37,0,0,1,.26,0Z"/><path class="cls-1" d="M20.68,29.51l-1.28.71a.42.42,0,0,1-.19,0H14.53l1.91-.75a.56.56,0,0,1,.2,0h4Z"/><path class="cls-1" d="M11.08,24.52l-.89.85a.36.36,0,0,1-.22.09H6.57l-.08,0,1.1-.9a.29.29,0,0,1,.17,0h3.18Z"/><path class="cls-1" d="M18.2,28.76l1.88-.95a.44.44,0,0,1,.19,0l2.85,0a.38.38,0,0,1,.23.07l-1.41.88a.39.39,0,0,1-.19,0Z"/><path class="cls-1" d="M9.4,26.24c-.21.25-.39.46-.57.66a.33.33,0,0,1-.21.09H4.73l.78-.72a.26.26,0,0,1,.16,0Z"/><path class="cls-1" d="M25.93,25.95l-1.33,1a.43.43,0,0,1-.24.06H21.6c.43-.24.83-.43,1.18-.68a2.21,2.21,0,0,1,1.45-.38C24.78,26,25.32,25.95,25.93,25.95Z"/><path class="cls-1" d="M24.73,25.2l1.44-.91a.24.24,0,0,1,.12,0h1.66l-1,.91a.23.23,0,0,1-.14,0Z"/><path class="cls-1" d="M50,14.37a2.8,2.8,0,0,0-1.6-2A3.77,3.77,0,0,0,46.83,12H41.21V23.55h3.27V19.28h.35c.81,0,1.62,0,2.42-.07A3,3,0,0,0,50,16.84,5.11,5.11,0,0,0,50,14.37Zm-3.73,2.4a5.08,5.08,0,0,1-1.8.16V14.38a5.57,5.57,0,0,1,1.73.11,1.09,1.09,0,0,1,.73,1.13A1.12,1.12,0,0,1,46.28,16.77Z"/><path class="cls-1" d="M28.28,15.15l-1.11,4h2.3l-1.13-4Z"/><path class="cls-1" d="M32.75,19.6q-1.28-3.7-2.55-7.4a.24.24,0,0,0-.27-.19H26.8a.26.26,0,0,0-.29.22q-1.9,5.55-3.82,11.11c0,.07,0,.15-.07.24H25.8c.15,0,.18-.08.21-.19.15-.57.31-1.13.47-1.71h3.06a.76.76,0,0,0,.37-.1l2.73-1.67A.21.21,0,0,0,32.75,19.6Zm-5.57-.44,1.11-4h.06l1.13,4Z"/></g></g></svg>